<svg enable-background="new 0 0 32 32" height="512" viewBox="0 0 32 32" width="512" xmlns="http://www.w3.org/2000/svg"><path d="m26 32h-20c-3.314 0-6-2.686-6-6v-20c0-3.314 2.686-6 6-6h20c3.314 0 6 2.686 6 6v20c0 3.314-2.686 6-6 6z" fill="#ffe6e2"/><path d="m19.333 16c0 .133-.04.267-.113.367l-3.333 5c-.12.18-.32.3-.553.3h-2c-.367 0-.667-.3-.667-.667 0-.133.04-.267.113-.367l3.087-4.633-3.087-4.633c-.073-.1-.113-.233-.113-.367 0-.367.3-.667.667-.667h2c.233 0 .433.12.553.3l3.333 5c.073.1.113.234.113.367z" fill="#fc573b"/></svg>