<svg height="512" viewBox="0 0 512 512" width="512" xmlns="http://www.w3.org/2000/svg"><g id="Travel_Cancelling" data-name="Travel Cancelling"><g id="Flat"><path d="m163.508 511.94c-7.162-.883-3.043-1.277-63.536-99.913-97.309-59.678-99.008-56.188-99.912-63.535a8 8 0 0 1 2.283-6.635c31.917-30.2 32.5-36.483 40.057-34.738l80.208 18.509 127.869-140.047c-161.439-123.968-158.708-117.529-159.177-124.414-.436-6.406 2.693-5.252 41.446-45.32a8 8 0 0 1 8.75-1.721l197.176 82.686 80.965-80.965c33.876-33.872 92.363-9.81 92.363 38.258a53.751 53.751 0 0 1 -15.847 38.258l-80.965 80.965 82.686 197.172a8 8 0 0 1 -1.721 8.751c-40.145 38.832-38.95 41.89-45.32 41.445-6.894-.467-.422 2.3-124.414-159.175l-140.047 127.871c17.41 81.444 22.006 82.027 16.371 87.664-32.6 31.175-32.443 35.717-39.235 34.884z" fill="#e3e2e8"/><path d="m466.829 70.143a7.979 7.979 0 0 1 -5.657-2.343l-16.972-16.971a8 8 0 1 1 11.314-11.314l16.97 16.97a8 8 0 0 1 -5.656 13.658z" fill="#9ba3d1"/><path d="m415.45 173.954a679.416 679.416 0 0 1 -228.372 81.064l-64.47 70.61-80.208-18.509c-7.554-1.745-8.14 4.542-40.057 34.738a8 8 0 0 0 -2.283 6.635c.9 7.347 2.6 3.857 99.912 63.535 60.493 98.636 56.374 99.029 63.536 99.913 6.8.833 6.635-3.709 39.235-34.884 5.635-5.637 1.038-6.22-16.371-87.664l140.047-127.869c123.992 161.47 117.52 158.708 124.414 159.177 6.37.445 5.175-2.613 45.32-41.445a8 8 0 0 0 1.721-8.751z" fill="#d2d1db"/><circle cx="316" cy="140" fill="#f9f8ff" r="28"/><circle cx="388" cy="132" fill="#f9f8ff" r="20"/><path d="m128 392a8 8 0 0 1 -5.657-13.657l40-40a8 8 0 1 1 11.314 11.314l-40 40a7.976 7.976 0 0 1 -5.657 2.343z" fill="#bfbecc"/><circle cx="384" cy="384" fill="#f27c6d" r="128"/><path d="m442.058 269.942a127.972 127.972 0 0 1 -172.116 172.116 127.989 127.989 0 1 0 172.116-172.116z" fill="#ed6464"/><path d="m395.313 384 50.344-50.343a8 8 0 0 0 -11.314-11.314l-50.343 50.344-50.343-50.344a8 8 0 0 0 -11.314 11.314l50.344 50.343-50.344 50.343a8.01 8.01 0 0 0 5.657 13.657c6.022 0 3.758-1.67 56-52.687 52.245 51.019 49.98 52.687 56 52.687a8.01 8.01 0 0 0 5.657-13.657z" fill="#fff"/><g fill="#ffa596"><circle cx="372" cy="284" r="20"/><circle cx="412" cy="300" r="12"/></g></g></g></svg>