<svg id="Capa_1" enable-background="new 0 0 512 512" height="512" viewBox="0 0 512 512" width="512" xmlns="http://www.w3.org/2000/svg"><g><g><path d="m403.484 402.474h-294.968c-16.737 0-30.305-13.568-30.305-30.305v-179.773l355.577-.036v179.809c.001 16.737-13.567 30.305-30.304 30.305z" fill="#e28086"/></g><g><path d="m494.398 234.787h-60.61v-42.427h60.61c5.579 0 10.102 4.523 10.102 10.102v22.224c0 5.578-4.523 10.101-10.102 10.101z" fill="#30579d"/></g><g><path d="m433.789 192.36h20.203v42.427h-20.203z" fill="#26457d"/></g><g><path d="m17.602 234.787h60.61v-42.427h-60.61c-5.579 0-10.102 4.523-10.102 10.102v22.224c0 5.578 4.523 10.101 10.102 10.101z" fill="#30579d"/></g><g><path d="m58.008 192.36h20.203v42.427h-20.203z" fill="#26457d"/></g><g><path d="m78.211 149.933h355.577v42.427h-355.577z" fill="#4073c8"/></g><g><path d="m306.003 288.325h-101.016c-5.579 0-10.102-4.523-10.102-10.102v-12.122c0-5.579 4.523-10.102 10.102-10.102h101.016c5.579 0 10.102 4.523 10.102 10.102v12.122c0 5.58-4.523 10.102-10.102 10.102z" fill="#ffe07d"/></g><g><path d="m408.535 192.362v179.806c0 16.737-13.568 30.305-30.305 30.305h25.254c16.737 0 30.305-13.568 30.305-30.305v-179.808z" fill="#dd636e"/></g><g><path d="m408.535 149.933h25.254v42.427h-25.254z" fill="#3b66c1"/></g><g><g><path d="m300.288 460.212c0-24.459-44.288-75.922-44.288-75.922s-44.288 51.462-44.288 75.922c0 24.459 19.828 44.288 44.288 44.288s44.288-19.828 44.288-44.288z" fill="#ffe07d"/></g><g><path d="m283.464 420.997c2.578 6.04 4.17 11.646 4.17 16.281 0 24.459-19.828 44.288-44.288 44.288-11.939 0-22.766-4.733-30.731-12.414 4.135 20.174 21.988 35.348 43.385 35.348 24.459 0 44.288-19.828 44.288-44.288 0-10.253-7.784-25.251-16.824-39.215z" fill="#f1cb86"/></g><g><path d="m282.223 478.277c0-14.483-26.223-44.954-26.223-44.954s-26.223 30.471-26.223 44.954 11.74 26.223 26.223 26.223 26.223-11.74 26.223-26.223z" fill="#e7a561"/></g><g><path d="m243.346 481.565c-4.724 0-9.271-.747-13.54-2.116.614 13.938 12.105 25.051 26.194 25.051 14.483 0 26.223-11.74 26.223-26.223 0-3.689-1.706-8.417-4.242-13.413-8.115 10.174-20.609 16.701-34.635 16.701z" fill="#e49542"/></g></g><g><g><path d="m211.553 460.212c0-24.459-44.288-75.922-44.288-75.922s-44.288 51.462-44.288 75.922c0 24.459 19.828 44.288 44.288 44.288s44.288-19.828 44.288-44.288z" fill="#ffe07d"/></g><g><path d="m194.729 420.997c2.578 6.04 4.17 11.646 4.17 16.281 0 24.459-19.828 44.288-44.288 44.288-11.939 0-22.766-4.733-30.731-12.414 4.135 20.174 21.988 35.349 43.385 35.349 24.459 0 44.288-19.828 44.288-44.288 0-10.254-7.784-25.252-16.824-39.216z" fill="#f1cb86"/></g><g><path d="m193.488 478.277c0-14.483-26.223-44.954-26.223-44.954s-26.223 30.471-26.223 44.954 11.74 26.223 26.223 26.223 26.223-11.74 26.223-26.223z" fill="#e7a561"/></g><g><path d="m154.612 481.565c-4.724 0-9.271-.747-13.54-2.116.614 13.938 12.104 25.051 26.193 25.051 14.483 0 26.223-11.74 26.223-26.223 0-3.689-1.706-8.417-4.242-13.413-8.115 10.174-20.609 16.701-34.634 16.701z" fill="#e49542"/></g></g><g><g><path d="m389.022 460.212c0-24.459-44.288-75.922-44.288-75.922s-44.288 51.462-44.288 75.922c0 24.459 19.828 44.288 44.288 44.288s44.288-19.828 44.288-44.288z" fill="#ffe07d"/></g><g><path d="m372.198 420.997c2.578 6.04 4.17 11.646 4.17 16.281 0 24.459-19.828 44.288-44.288 44.288-11.939 0-22.766-4.733-30.731-12.414 4.135 20.174 21.988 35.349 43.385 35.349 24.459 0 44.288-19.828 44.288-44.288 0-10.254-7.783-25.252-16.824-39.216z" fill="#f1cb86"/></g><g><path d="m370.958 478.277c0-14.483-26.223-44.954-26.223-44.954s-26.223 30.471-26.223 44.954 11.74 26.223 26.223 26.223 26.223-11.74 26.223-26.223z" fill="#e7a561"/></g><g><path d="m332.081 481.565c-4.724 0-9.271-.747-13.54-2.116.614 13.938 12.104 25.051 26.193 25.051 14.483 0 26.223-11.74 26.223-26.223 0-3.689-1.706-8.417-4.242-13.413-8.114 10.174-20.608 16.701-34.634 16.701z" fill="#e49542"/></g></g><g><path d="m494.398 184.859h-53.108v-34.93c0-4.143-3.357-7.5-7.5-7.5h-274.36c-4.142 0-7.5 3.357-7.5 7.5s3.358 7.5 7.5 7.5h266.86v27.43h-340.58v-27.43h38.72c4.142 0 7.5-3.357 7.5-7.5s-3.358-7.5-7.5-7.5h-46.22c-4.142 0-7.5 3.357-7.5 7.5v34.93h-53.108c-9.706 0-17.602 7.897-17.602 17.602v22.224c0 9.705 7.896 17.602 17.602 17.602h53.108v75.494c0 4.143 3.358 7.5 7.5 7.5s7.5-3.357 7.5-7.5v-117.922h340.58v62.561c0 4.143 3.357 7.5 7.5 7.5s7.5-3.357 7.5-7.5v-20.134h53.108c9.705 0 17.602-7.896 17.602-17.602v-22.224c0-9.704-7.896-17.601-17.602-17.601zm-476.796 42.427c-1.435 0-2.602-1.167-2.602-2.602v-22.224c0-1.435 1.167-2.602 2.602-2.602h53.108v27.427h-53.108zm479.398-2.601c0 1.435-1.167 2.602-2.602 2.602h-53.108v-27.427h53.108c1.435 0 2.602 1.167 2.602 2.602z"/><path d="m306.003 295.825c9.705 0 17.602-7.896 17.602-17.602v-12.122c0-9.705-7.896-17.602-17.602-17.602h-101.016c-9.706 0-17.602 7.896-17.602 17.602v12.122c0 9.705 7.896 17.602 17.602 17.602zm-103.618-17.601v-12.122c0-1.435 1.167-2.602 2.602-2.602h101.016c1.435 0 2.602 1.167 2.602 2.602v12.122c0 1.435-1.167 2.602-2.602 2.602h-101.016c-1.435-.001-2.602-1.168-2.602-2.602z"/><path d="m433.79 289.92c-4.143 0-7.5 3.357-7.5 7.5v74.75c0 12.572-10.232 22.8-22.81 22.8h-40.484c-6.158-8.038-11.119-13.877-12.577-15.571-1.425-1.655-3.5-2.607-5.685-2.607s-4.26.952-5.685 2.607c-1.46 1.696-6.43 7.546-12.596 15.596-.141-.011-.282-.025-.425-.025h-51.327c-.142 0-.281.014-.42.025-6.167-8.05-11.137-13.9-12.596-15.596-1.425-1.655-3.5-2.607-5.685-2.607-2.184 0-4.26.952-5.685 2.607-1.458 1.695-6.42 7.534-12.578 15.571h-52.211c-6.158-8.038-11.119-13.877-12.578-15.571-1.425-1.655-3.5-2.607-5.685-2.607s-4.26.952-5.685 2.607c-1.458 1.695-6.42 7.534-12.578 15.571h-40.48c-12.578 0-22.81-10.228-22.81-22.8v-19.39c0-4.143-3.358-7.5-7.5-7.5s-7.5 3.357-7.5 7.5v19.39c0 20.843 16.961 37.8 37.81 37.8h29.576c-11.414 16.631-22.619 36.465-22.619 50.242 0 27.974 22.3 50.825 50.055 51.744.574.029 1.152.044 1.733.044s1.159-.015 1.733-.044c18.078-.599 33.841-10.495 42.634-25.063 8.793 14.568 24.556 24.465 42.634 25.063.574.029 1.152.044 1.733.044s1.159-.015 1.733-.044c18.078-.599 33.841-10.495 42.635-25.063 8.793 14.568 24.556 24.464 42.634 25.063.574.029 1.152.044 1.733.044s1.159-.015 1.733-.044c27.755-.919 50.055-23.77 50.055-51.744 0-13.777-11.205-33.611-22.619-50.242h29.577c20.849 0 37.81-16.957 37.81-37.8v-74.75c0-4.143-3.357-7.5-7.5-7.5zm-118.224 120.05c-5.534 8.063-11.016 16.877-15.198 25.391-4.182-8.514-9.665-17.328-15.199-25.391zm-88.735 0c-5.534 8.063-11.016 16.877-15.199 25.391-4.182-8.514-9.665-17.328-15.199-25.391zm-78.289 68.307c0-6.525 9.777-21.567 18.725-33.086 8.946 11.511 18.721 26.548 18.721 33.086 0 10.323-8.399 18.723-18.723 18.723s-18.723-8.399-18.723-18.723zm52.221-2.889c-2.36-16.632-23.395-41.823-27.813-46.958-1.425-1.655-3.5-2.607-5.685-2.607s-4.26.952-5.685 2.607c-4.418 5.135-25.453 30.326-27.813 46.958-2.107-4.631-3.29-9.767-3.29-15.177 0-14.049 20.666-44.273 36.788-64.203 16.122 19.93 36.788 50.154 36.788 64.203 0 5.411-1.184 10.547-3.29 15.177zm36.514 2.889c0-6.524 9.776-21.564 18.723-33.083 8.946 11.519 18.723 26.559 18.723 33.083 0 10.323-8.399 18.723-18.723 18.723s-18.723-8.399-18.723-18.723zm52.221-2.887c-2.359-16.632-23.394-41.825-27.813-46.959-1.425-1.655-3.5-2.607-5.685-2.607-2.184 0-4.26.952-5.685 2.607-4.418 5.134-25.453 30.326-27.813 46.958-2.106-4.631-3.29-9.766-3.29-15.176 0-14.049 20.666-44.273 36.788-64.203 16.122 19.93 36.788 50.154 36.788 64.203 0 5.409-1.184 10.546-3.29 15.177zm36.514 2.887c0-6.524 9.776-21.564 18.723-33.084 8.947 11.52 18.724 26.56 18.724 33.084 0 10.323-8.399 18.723-18.724 18.723-10.324 0-18.723-8.399-18.723-18.723zm52.221-2.889c-2.36-16.632-23.396-41.823-27.814-46.958-1.425-1.655-3.5-2.607-5.685-2.607s-4.26.952-5.685 2.607c-4.418 5.134-25.453 30.326-27.813 46.958-2.106-4.631-3.29-9.766-3.29-15.176 0-14.049 20.666-44.273 36.787-64.203 16.122 19.93 36.788 50.154 36.788 64.203.001 5.41-1.182 10.546-3.288 15.176z"/><path d="m195.539 92.582c-3.597 2.908-9.034 7.303-9.034 15.935 0 4.143 3.358 7.5 7.5 7.5s7.5-3.357 7.5-7.5c0-1.191.319-1.728 3.463-4.269 3.597-2.908 9.033-7.302 9.033-15.934s-5.436-13.026-9.034-15.935c-3.144-2.541-3.463-3.077-3.463-4.269 0-1.19.319-1.727 3.463-4.268 3.597-2.908 9.034-7.302 9.034-15.934 0-8.633-5.436-13.027-9.033-15.935-3.144-2.542-3.463-3.079-3.463-4.271s.319-1.729 3.463-4.271c3.597-2.907 9.033-7.302 9.033-15.935 0-4.143-3.358-7.5-7.5-7.5s-7.5 3.357-7.5 7.5c0 1.191-.319 1.729-3.463 4.271-3.597 2.907-9.033 7.302-9.033 15.935s5.436 13.027 9.033 15.935c3.144 2.542 3.463 3.079 3.463 4.271 0 1.19-.319 1.727-3.463 4.268-3.597 2.908-9.034 7.302-9.034 15.934s5.436 13.026 9.033 15.935c3.144 2.541 3.463 3.077 3.463 4.269.002 1.191-.317 1.727-3.461 4.268z"/><path d="m251.285 92.582c-3.597 2.908-9.034 7.303-9.034 15.935 0 4.143 3.358 7.5 7.5 7.5s7.5-3.357 7.5-7.5c0-1.191.319-1.728 3.463-4.269 3.597-2.908 9.033-7.302 9.033-15.934s-5.437-13.026-9.033-15.935c-3.145-2.541-3.463-3.077-3.463-4.269 0-1.19.318-1.727 3.462-4.268 3.598-2.908 9.034-7.302 9.034-15.934 0-8.633-5.437-13.027-9.033-15.935-3.144-2.542-3.463-3.079-3.463-4.271s.319-1.729 3.463-4.271c3.597-2.907 9.033-7.302 9.033-15.935 0-4.143-3.357-7.5-7.5-7.5s-7.5 3.357-7.5 7.5c0 1.191-.319 1.729-3.463 4.271-3.597 2.907-9.033 7.302-9.033 15.935s5.436 13.027 9.033 15.935c3.144 2.542 3.463 3.079 3.463 4.271 0 1.19-.319 1.727-3.463 4.268-3.597 2.908-9.034 7.302-9.034 15.934s5.436 13.026 9.033 15.935c3.144 2.541 3.463 3.077 3.463 4.269.002 1.191-.317 1.727-3.461 4.268z"/><path d="m307.032 92.582c-3.598 2.908-9.034 7.302-9.034 15.935 0 4.143 3.357 7.5 7.5 7.5s7.5-3.357 7.5-7.5c0-1.191.319-1.728 3.463-4.269 3.598-2.908 9.034-7.302 9.034-15.934s-5.437-13.026-9.034-15.935c-3.144-2.541-3.463-3.077-3.463-4.269 0-1.19.319-1.727 3.463-4.268 3.598-2.907 9.034-7.302 9.034-15.934 0-8.633-5.437-13.027-9.033-15.936-3.145-2.541-3.464-3.078-3.464-4.27s.319-1.729 3.464-4.27c3.597-2.908 9.033-7.303 9.033-15.936 0-4.143-3.357-7.5-7.5-7.5s-7.5 3.357-7.5 7.5c0 1.191-.319 1.729-3.464 4.27-3.597 2.908-9.033 7.303-9.033 15.936s5.437 13.027 9.033 15.936c3.145 2.541 3.464 3.078 3.464 4.27 0 1.19-.319 1.727-3.463 4.268-3.598 2.907-9.034 7.302-9.034 15.934s5.437 13.026 9.034 15.935c3.144 2.541 3.463 3.077 3.463 4.269 0 1.191-.319 1.727-3.463 4.268z"/></g></g></svg>