<svg height="511pt" viewBox="1 -5 511.99974 511" width="511pt" xmlns="http://www.w3.org/2000/svg"><path d="m250.078125 501.257812c-20.539063 0-40.496094-2.484374-59.589844-7.160156-10.722656-2.625-20.566406-7.992187-28.488281-15.675781-36.015625-34.929687-147.558594-143.300781-148.796875-146.957031-8.554687-25.226563-13.203125-52.257813-13.203125-80.375 0-138.167969 111.964844-250.171875 250.078125-250.171875s250.078125 112.003906 250.078125 250.171875c0 138.164062-111.964844 250.167968-250.078125 250.167968zm0 0" fill="#d3f1f5"/><path d="m502.675781 213.003906-36.640625 36.78125-49.648437 49.667969c-16.175781 16.179687-35.464844 28.90625-56.707031 37.402344-21.238282 8.5-40.53125 21.226562-56.703126 37.40625l-115.328124 115.371093c-.179688.179688-.371094.332032-.578126.472657l.054688.050781c1.167969 1.167969 2.125 2.460938 2.910156 3.828125-42.113281-10.386719-80.023437-31.4375-110.703125-60.136719l-11.945312-11.949218c-24-25.675782-42.660157-56.402344-54.195313-90.425782 6.511719-2.503906 14.167969-1.140625 19.417969 4.113282l114.898437-114.941407c8.363282-8.371093 13.066407-19.722656 13.066407-31.558593v-156.742188c0-17.585938 14.25-31.84375 31.832031-31.84375s31.832031 14.257812 31.832031 31.84375v75.414062c0 8.726563 10.546875 13.097657 16.714844 6.925782l45.019531-45.03125 54.871094-54.894532c12.433594-12.4375 32.585938-12.4375 45.015625 0 10.804687 10.804688 12.214844 27.449219 4.238281 39.785157l.503906.503906 25.832032-25.839844c12.429687-12.4375 32.585937-12.4375 45.015625 0 12.433593 12.433594 12.433593 32.597657 0 45.03125l-25.832031 25.84375 1.011718 1.011719c12.015625-6.320312 27.214844-4.425781 37.316406 5.679688 12.429688 12.433593 12.429688 32.597656 0 45.03125l-9.242187 9.117187 1.128906 1.132813c11.9375-6.023438 26.875-4.058594 36.84375 5.914062 12.433594 12.4375 12.433594 32.597656 0 45.035156zm0 0" fill="#0ed1b2"/><path d="m289.003906 156.636719 58.855469-58.875 68.5625-68.59375c12.433594-12.433594 32.585937-12.433594 45.019531 0 .988282.992187 1.890625 2.035156 2.722656 3.117187-4.199218 1.542969-8.140624 3.992188-11.511718 7.363282l-80.164063 80.195312-60.132812 60.15625c-6.449219 6.449219-16.902344 6.449219-23.351563 0-6.453125-6.453125-6.453125-16.910156 0-23.363281zm45.167969 68.035156c6.449219 6.449219 16.902344 6.449219 23.351563 0l36.628906-36.640625 70.902344-70.929688c3.371093-3.371093 7.3125-5.824218 11.511718-7.367187-.832031-1.078125-1.734375-2.125-2.726562-3.113281-12.429688-12.4375-32.585938-12.4375-45.015625 0l-64.179688 64.203125-30.472656 30.484375c-6.449219 6.449218-6.449219 16.910156 0 23.363281zm168.476563-56.824219c-12.429688-12.4375-32.585938-12.4375-45.015626 0l-64.828124 64.980469-13.785157 13.792969c-6.449219 6.449218-6.449219 16.910156 0 23.363281 6.445313 6.449219 16.902344 6.449219 23.351563 0l19.941406-19.949219 71.546875-71.707031c3.375-3.371094 7.273437-5.804687 11.472656-7.351563-.832031-1.082031-1.691406-2.140624-2.683593-3.128906zm-258.652344-32.84375c6.449218 6.453125 16.90625 6.453125 23.355468 0l48.125-48.144531 61.597657-61.621094c3.371093-3.371093 7.3125-5.820312 11.511719-7.363281-.832032-1.082031-1.734376-2.128906-2.726563-3.117188-12.429687-12.4375-32.585937-12.4375-45.015625 0l-54.875 54.894532-41.972656 41.988281c-6.449219 6.453125-6.449219 16.910156 0 23.363281zm-79.953125 304.421875-80.449219-80.480469c-7.628906-7.632812-7.628906-20.007812 0-27.636718l93.421875-93.457032c8.363281-8.371093 13.066406-19.722656 13.066406-31.558593v-184.738281c0-7.863282 2.855469-15.058594 7.578125-20.613282-1.710937-.285156-3.464844-.441406-5.253906-.441406-17.582031 0-31.832031 14.257812-31.832031 31.84375v156.738281c0 11.839844-4.703125 23.191407-13.066407 31.558594l-114.898437 114.941406c-5.25-5.25-12.90625-6.613281-19.417969-4.109375 3.054688 9.011719 6.621094 17.785156 10.640625 26.300782.757813-1.152344 1.660157-2.238282 2.710938-3.226563 7.21875-6.832031 18.695312-6.328125 25.726562.703125l97.957031 97.996094c3.816407 3.816406 10 3.816406 13.816407 0 3.8125-3.816406 3.8125-10.003906 0-13.820313zm0 0" fill="#0ab59e"/></svg>